<mxfile host="app.diagrams.net" modified="2024-05-04T11:19:22.016Z" agent="Mozilla/5.0 (Windows NT 10.0; Win64; x64) AppleWebKit/537.36 (KHTML, like Gecko) Chrome/124.0.0.0 Safari/537.36" etag="sxgWjmBztc0ZOoGoLwF6" version="24.3.1" type="github">
  <diagram name="Page-1" id="IClFZ-mQC-XqtTfSZbQw">
    <mxGraphModel dx="614" dy="294" grid="1" gridSize="10" guides="1" tooltips="1" connect="1" arrows="1" fold="1" page="1" pageScale="1" pageWidth="827" pageHeight="1169" math="0" shadow="0">
      <root>
        <mxCell id="0" />
        <mxCell id="1" parent="0" />
        <mxCell id="Lu5b3lH1lwCea083h_Vl-2" value="&lt;span style=&quot;font-size: 12pt; line-height: 115%; font-family: Times, serif;&quot; lang=&quot;EN&quot;&gt;&lt;b&gt;STM32H750VB&amp;nbsp;&lt;/b&gt;&lt;/span&gt;" style="rounded=0;whiteSpace=wrap;html=1;" vertex="1" parent="1">
          <mxGeometry x="90" y="150" width="130" height="230" as="geometry" />
        </mxCell>
        <mxCell id="Lu5b3lH1lwCea083h_Vl-3" value="" style="whiteSpace=wrap;html=1;aspect=fixed;" vertex="1" parent="1">
          <mxGeometry x="480" y="100" width="300" height="300" as="geometry" />
        </mxCell>
        <mxCell id="Lu5b3lH1lwCea083h_Vl-4" value="" style="whiteSpace=wrap;html=1;aspect=fixed;" vertex="1" parent="1">
          <mxGeometry x="490" y="110" width="280" height="280" as="geometry" />
        </mxCell>
        <mxCell id="Lu5b3lH1lwCea083h_Vl-16" value="&lt;b&gt;LED&lt;/b&gt;" style="text;html=1;align=center;verticalAlign=middle;resizable=0;points=[];autosize=1;strokeColor=none;fillColor=none;" vertex="1" parent="1">
          <mxGeometry x="605" y="110" width="50" height="30" as="geometry" />
        </mxCell>
        <mxCell id="Lu5b3lH1lwCea083h_Vl-33" style="edgeStyle=orthogonalEdgeStyle;rounded=0;orthogonalLoop=1;jettySize=auto;html=1;" edge="1" parent="1">
          <mxGeometry relative="1" as="geometry">
            <mxPoint x="220" y="181" as="targetPoint" />
            <mxPoint x="500" y="179" as="sourcePoint" />
            <Array as="points">
              <mxPoint x="250" y="179" />
              <mxPoint x="250" y="180" />
              <mxPoint x="220" y="180" />
            </Array>
          </mxGeometry>
        </mxCell>
        <mxCell id="Lu5b3lH1lwCea083h_Vl-18" value="&lt;b&gt;&lt;font style=&quot;font-size: 9px;&quot;&gt;Pressure Sensor&lt;/font&gt;&lt;/b&gt;" style="rounded=0;whiteSpace=wrap;html=1;" vertex="1" parent="1">
          <mxGeometry x="500" y="150" width="60" height="60" as="geometry" />
        </mxCell>
        <mxCell id="Lu5b3lH1lwCea083h_Vl-34" style="edgeStyle=orthogonalEdgeStyle;rounded=0;orthogonalLoop=1;jettySize=auto;html=1;entryX=1.003;entryY=0.876;entryDx=0;entryDy=0;entryPerimeter=0;" edge="1" parent="1" source="Lu5b3lH1lwCea083h_Vl-19" target="Lu5b3lH1lwCea083h_Vl-2">
          <mxGeometry relative="1" as="geometry">
            <mxPoint x="230" y="350" as="targetPoint" />
          </mxGeometry>
        </mxCell>
        <mxCell id="Lu5b3lH1lwCea083h_Vl-19" value="&lt;b&gt;&lt;font style=&quot;font-size: 9px;&quot;&gt;Temperature Sensor&lt;/font&gt;&lt;/b&gt;" style="rounded=0;whiteSpace=wrap;html=1;" vertex="1" parent="1">
          <mxGeometry x="500" y="320" width="60" height="60" as="geometry" />
        </mxCell>
        <mxCell id="Lu5b3lH1lwCea083h_Vl-20" value="" style="rounded=0;whiteSpace=wrap;html=1;" vertex="1" parent="1">
          <mxGeometry x="710" y="150" width="50" height="200" as="geometry" />
        </mxCell>
        <mxCell id="Lu5b3lH1lwCea083h_Vl-21" value="&lt;b&gt;Isopropyl Alcohol&lt;/b&gt;" style="text;html=1;align=center;verticalAlign=middle;resizable=0;points=[];autosize=1;strokeColor=none;fillColor=none;rotation=-90;" vertex="1" parent="1">
          <mxGeometry x="675" y="235" width="120" height="30" as="geometry" />
        </mxCell>
        <mxCell id="Lu5b3lH1lwCea083h_Vl-23" value="" style="line;strokeWidth=2;html=1;" vertex="1" parent="1">
          <mxGeometry x="500" y="130" width="260" height="10" as="geometry" />
        </mxCell>
        <mxCell id="Lu5b3lH1lwCea083h_Vl-25" value="&lt;b&gt;&amp;nbsp; &amp;nbsp; &amp;nbsp; &amp;nbsp; Solenoid Valve&lt;/b&gt;" style="html=1;whiteSpace=wrap;container=1;recursiveResize=0;collapsible=0;rotation=-90;" vertex="1" parent="1">
          <mxGeometry x="598.75" y="360" width="132.5" height="60" as="geometry" />
        </mxCell>
        <mxCell id="Lu5b3lH1lwCea083h_Vl-26" value="" style="triangle;html=1;whiteSpace=wrap;rotation=-90;" vertex="1" parent="Lu5b3lH1lwCea083h_Vl-25">
          <mxGeometry x="56.25" y="58.75" width="20" height="30" as="geometry" />
        </mxCell>
        <mxCell id="Lu5b3lH1lwCea083h_Vl-27" value="" style="shape=partialRectangle;whiteSpace=wrap;html=1;left=0;right=0;fillColor=none;rotation=-90;" vertex="1" parent="1">
          <mxGeometry x="645" y="460" width="40" height="10" as="geometry" />
        </mxCell>
        <mxCell id="Lu5b3lH1lwCea083h_Vl-32" value="&lt;b&gt;Camera&lt;/b&gt;" style="rounded=1;whiteSpace=wrap;html=1;" vertex="1" parent="1">
          <mxGeometry x="450" y="250" width="70" height="35" as="geometry" />
        </mxCell>
      </root>
    </mxGraphModel>
  </diagram>
</mxfile>
